/* XPM */
static char * floor_xpm[] = {
"64 64 315 2",
"  	c #195524",
". 	c #1A5624",
"+ 	c #1A5824",
"@ 	c #1B5924",
"# 	c #1B5923",
"$ 	c #1A5724",
"% 	c #185424",
"& 	c #175424",
"* 	c #175324",
"= 	c #195424",
"- 	c #1D5E23",
"; 	c #1E6222",
"> 	c #1F6322",
", 	c #1E6022",
"' 	c #1C5B23",
") 	c #1B5724",
"! 	c #1C5724",
"~ 	c #195624",
"{ 	c #1C5D23",
"] 	c #206522",
"^ 	c #226A21",
"/ 	c #236B21",
"( 	c #225D23",
"_ 	c #296422",
": 	c #2C6722",
"< 	c #2A6622",
"[ 	c #266322",
"} 	c #215F23",
"| 	c #1C5C23",
"1 	c #236D20",
"2 	c #226B21",
"3 	c #206622",
"4 	c #1D5F23",
"5 	c #175125",
"6 	c #1F5A23",
"7 	c #2C6822",
"8 	c #377520",
"9 	c #3C7B1E",
"0 	c #3D7C1E",
"a 	c #3A791F",
"b 	c #337420",
"c 	c #296C21",
"d 	c #206422",
"e 	c #236C21",
"f 	c #1F6422",
"g 	c #1B5824",
"h 	c #174F26",
"i 	c #144926",
"j 	c #144826",
"k 	c #154C26",
"l 	c #185225",
"m 	c #205B23",
"n 	c #306C21",
"o 	c #3D7B1E",
"p 	c #43841D",
"q 	c #46871C",
"r 	c #44851C",
"s 	c #3C7F1D",
"t 	c #2E741F",
"u 	c #1D6222",
"v 	c #1B5B23",
"w 	c #1F6222",
"x 	c #246E20",
"y 	c #236E20",
"z 	c #216821",
"A 	c #1C5B24",
"B 	c #154A26",
"C 	c #104028",
"D 	c #103F28",
"E 	c #114327",
"F 	c #144A26",
"G 	c #1D5824",
"H 	c #357220",
"I 	c #3E7C1E",
"J 	c #46881B",
"K 	c #3E821D",
"L 	c #30771F",
"M 	c #206721",
"N 	c #236C20",
"O 	c #226921",
"P 	c #1E6123",
"Q 	c #185325",
"R 	c #0E3C28",
"S 	c #104127",
"T 	c #134826",
"U 	c #164D25",
"V 	c #1C5824",
"W 	c #266222",
"X 	c #326E21",
"Y 	c #3E7D1E",
"Z 	c #43851C",
"` 	c #3D811D",
" .	c #256F20",
"..	c #226C20",
"+.	c #1B5A23",
"@.	c #164E26",
"#.	c #114227",
"$.	c #175025",
"%.	c #185324",
"&.	c #1E5A23",
"*.	c #256023",
"=.	c #276322",
"-.	c #246123",
";.	c #286622",
">.	c #367420",
",.	c #387A1E",
"'.	c #2D741F",
").	c #257020",
"!.	c #236F20",
"~.	c #1B5A24",
"{.	c #1C5C24",
"].	c #1F6223",
"^.	c #1E6223",
"/.	c #164D26",
"(.	c #1B5624",
"_.	c #266123",
":.	c #37751F",
"<.	c #317120",
"[.	c #276921",
"}.	c #246722",
"|.	c #2B6A21",
"1.	c #2F6D21",
"2.	c #2D6E20",
"3.	c #286F20",
"4.	c #246F20",
"5.	c #247020",
"6.	c #195525",
"7.	c #154B26",
"8.	c #38761F",
"9.	c #3E7E1E",
"0.	c #387B1E",
"a.	c #2C7220",
"b.	c #236A21",
"c.	c #216322",
"d.	c #216023",
"e.	c #226422",
"f.	c #1E6023",
"g.	c #164F26",
"h.	c #0F3E28",
"i.	c #134727",
"j.	c #164E25",
"k.	c #1D5924",
"l.	c #336F21",
"m.	c #38771F",
"n.	c #34771F",
"o.	c #2A7220",
"p.	c #1F6622",
"q.	c #1F6522",
"r.	c #0D3828",
"s.	c #0E3A28",
"t.	c #103F27",
"u.	c #134627",
"v.	c #174F25",
"w.	c #1D5D23",
"x.	c #1A5924",
"y.	c #1F6023",
"z.	c #2F6B21",
"A.	c #2A6522",
"B.	c #1A5524",
"C.	c #296622",
"D.	c #286A21",
"E.	c #256D20",
"F.	c #226C21",
"G.	c #0F3C28",
"H.	c #0D3928",
"I.	c #0E3B28",
"J.	c #104027",
"K.	c #134726",
"L.	c #164F25",
"M.	c #266B21",
"N.	c #32751F",
"O.	c #3C7C1E",
"P.	c #40801D",
"Q.	c #41801D",
"R.	c #347120",
"S.	c #1C5924",
"T.	c #216721",
"U.	c #0F3D28",
"V.	c #124427",
"W.	c #1D5D24",
"X.	c #216921",
"Y.	c #206722",
"Z.	c #164C26",
"`.	c #1D5825",
" +	c #266822",
".+	c #2F741F",
"++	c #387D1E",
"@+	c #3F821D",
"#+	c #42841C",
"$+	c #42831D",
"%+	c #3F7E1E",
"&+	c #185524",
"*+	c #1A5A23",
"=+	c #124527",
"-+	c #154D25",
";+	c #165025",
">+	c #1D5B24",
",+	c #286822",
"'+	c #347520",
")+	c #3A7E1E",
"!+	c #3B7F1D",
"~+	c #397E1E",
"{+	c #36771F",
"]+	c #337020",
"^+	c #2B6722",
"/+	c #165324",
"(+	c #1E6122",
"_+	c #114127",
":+	c #175026",
"<+	c #185625",
"[+	c #226622",
"}+	c #2F7320",
"|+	c #3B7E1E",
"1+	c #3A7E1D",
"2+	c #30751F",
"3+	c #286D21",
"4+	c #246522",
"5+	c #225F23",
"6+	c #1E5924",
"7+	c #2E761F",
"8+	c #3B7E1D",
"9+	c #286C21",
"0+	c #235D23",
"a+	c #2B6622",
"b+	c #2F6A21",
"c+	c #215C23",
"d+	c #29721F",
"e+	c #2F751F",
"f+	c #2A6D21",
"g+	c #216222",
"h+	c #185624",
"i+	c #407F1E",
"j+	c #276222",
"k+	c #185224",
"l+	c #267120",
"m+	c #216622",
"n+	c #195724",
"o+	c #327020",
"p+	c #45861C",
"q+	c #377420",
"r+	c #286322",
"s+	c #1A5725",
"t+	c #216822",
"u+	c #1B5B24",
"v+	c #185125",
"w+	c #1B5D23",
"x+	c #256722",
"y+	c #35761F",
"z+	c #38751F",
"A+	c #2E6A21",
"B+	c #235E23",
"C+	c #1E5F23",
"D+	c #276D20",
"E+	c #35791E",
"F+	c #40821D",
"G+	c #41811D",
"H+	c #195425",
"I+	c #236D21",
"J+	c #266F20",
"K+	c #31761F",
"L+	c #397A1E",
"M+	c #2E6922",
"N+	c #185126",
"O+	c #175225",
"P+	c #246C21",
"Q+	c #296E20",
"R+	c #2C6B21",
"S+	c #1F5E23",
"T+	c #195824",
"U+	c #205C23",
"V+	c #1D5A23",
"W+	c #2E6C21",
"X+	c #266622",
"Y+	c #1F6022",
"Z+	c #1E5A24",
"`+	c #2D6922",
" @	c #3A781F",
".@	c #43831D",
"+@	c #40811D",
"@@	c #397B1E",
"#@	c #2E7220",
"$@	c #236921",
"%@	c #1D6022",
"&@	c #134827",
"*@	c #39771F",
"=@	c #46881C",
"-@	c #31781F",
";@	c #144827",
">@	c #124327",
",@	c #2D6822",
"'@	c #45871C",
")@	c #40831C",
"!@	c #32791E",
"~@	c #216A21",
"{@	c #1F5B23",
"]@	c #215D23",
"^@	c #2A6722",
"/@	c #3D801D",
"(@	c #267020",
"_@	c #2B6921",
":@	c #246422",
"<@	c #256522",
"[@	c #306E21",
"}@	c #34751F",
"|@	c #37791F",
"1@	c #2B7020",
"2@	c #246921",
"3@	c #256622",
"4@	c #286821",
"5@	c #266C21",
"6@	c #367220",
"7@	c #316F21",
"8@	c #2F7120",
"9@	c #297020",
"0@	c #206821",
"                                                                                                                                ",
"                                            . + @ # # + $                                                                       ",
"              % & * * & % % =           =   @ - ; > > , ' .                                                                     ",
"              . ) ! ! ) ) . ~             $ { ] ^ / ^ ] { . =                                                                   ",
"            ! ( _ : : < [ } | + ~     . @ { > ^ 1 2 3 4 $ 5 5 %                                                                 ",
"        % % 6 7 8 9 0 a b c d { $ =   + - ] ^ 1 e f g h i j k l                                                                 ",
"        % % m n o p q r s t / u v .   # w ^ x y z A B C D E F 5                                                                 ",
"        % * G _ H I r J K L x M w { @ v f N y O P Q E R S T U l                                                                 ",
"          . V m W X Y Z ` L  ...^ > ' +.> 2 ^ w @ @.E #.i $.%.=                                                                 ",
"      . &.*.=.-.} ;.>.0 ,.'.).!.1 ] ~.  {.].^.|   $./.@.5 =                                       % % % %                       ",
"    % (._.X :.<.[.}.|.1.2.3.4.5.x f 6.7./.Q 6.  . ~.{ { @ ~                                   = % % & & & %                     ",
"    & ) _ 8.9.0.a.b.c.d.e./ 4.4.2 f.g.S h.#.i.j.~ 4 3 ] - $           = % = ~ $ $ ~   = % = ~ g k.6 m m 6 G (.                  ",
"    % (._.l.m.n.o.e p.; q.2 1 2 ] ~.i R r.s.t.u.v.~.w > | .         = 5 j.$.$ w.{ # = $.j.5 x.y.;.z.X l.n A.m B.%               ",
"      . 6 *.C.D.E.y F.^ F.1 e 3 { l u.G.H.I.G.J.u.$.+ v + ~         = j.T k ~.] f | %.7.K.L.- M.N.O.P.Q.Y R._.. %               ",
"          . S.f.T./ 1 x 4.4.2 w + L.K.S U.R G.D V.k l   ~           % U K.k W.X.Y.| 5 7.Z.`. +.+++@+#+$+%+H _.. *               ",
"        % % &+*+4 ] 2 4.).5.2 ; $ 5 U i #.h.t.=+7.v.%.          =   % $.-+l P ^ ] $ /.;+>+,+'+)+!+~+0.{+]+^+m % /+& %           ",
"              ~ + - 3 e x y ^ (++ = %.$.j _+V.k l =         ~ . $ $ $     ~.f O P :+i <+[+}+|+@+1+2+3+4+5+m 6 6+6+6+V .         ",
"              =   # , 3 z T.f - $     %.U j F $.=         . +.w.4 4 4 4 4 (+f f ~.B i.+ b.7+++8+n.9+; *+g 0+a+z.n b+_ c+. %     ",
"                  $ +.{ w.w.| @ ~     = l $.5 %.          $ - ] z X.X.X.X.T.> w.Q u.i.x.^ d+7+e+f+g+*+h+6+: 8.%+i+0 H j+) %     ",
"                    ~ ~ ~ ~ ~             = =         = k+= | f O e y 4.x 2 ] | l j B ~.O ).l+E.m+| n+n+} o+P.q p+Q.q+r+) &     ",
"                      = = = =                         l U 7.v.s+4 t+x ).5.1 O > u+v+v+- 2 5.5...f v + w+x+y+#+q Q.z+A+B+. %     ",
"                                                      $.i E _+=+:+C+2 4.4.4.y 2 f ~.+ f.^ x 4.2 > +.+.; D+E+F+G+q+_ m !         ",
"                                                      5 7.V.h.U.=+H+P t+I+4.5.x z - # 4 ] z X.3 {   $ f J+K+L+8.M+6 % %         ",
"                                                      %.5 k =+D D i.N+W.X.4.).x z - + # { 4 4 | Q 7.O+P P+Q+R+< B+) % %         ",
"                                                          l k V.J.J.u.6.f e 1 2 ] { .   . $ $ = /.u.@.- z m+S+G (.              ",
"                                                          = $.7.j K.F Q - f ] > 4 +.~ = = = = %.j.7.$.u+(+- T+% %               ",
"                                                            %.l 5 5 l = + +.v +.@ $           = %.l %.$ @ + ~                   ",
"                                                                                                                                ",
"                                                                          = = =                                                 ",
"                                                                                                                                ",
"                                                                                                                                ",
"                                                                                                                                ",
"                                                                                                                                ",
"                                                                                                                                ",
"                                                                                                                                ",
"                                                                                                                                ",
"                                                                                                                                ",
"                                                                                                                                ",
"                                                                                                                                ",
"                                                                                                                                ",
"                                                                                                                                ",
"                                                                                                                                ",
"                                                                                                                                ",
"                                                          = = = =                                                               ",
"                                                        ~ ~ ~ ~ ~                                                               ",
"                          % % % % % =                 $ +.{ - - | # ~                                                           ",
"                          % % % % % =             =   +.(+3 z T.f w.$                                                           ",
"                      . G m ( ( ( U+V+g $         ~ + - M e I+^ ] {   %.=                                                       ",
"                    % V _.n R.H ]+W+X+Y+v . = = $ v f.3 2 1 O P @ l /.j.l                                                       ",
"                  &+% Z+`+ @G+.@+@@@#@$@%@@     + f.T.e x / P Q &@E V.i 5                                                       ",
"                  % & k.: *@G+q =@@+-@E.q.4 +.$ # w 2 x 1 Y.@ ;@U.h.>@F 5                                                       ",
"                  % & (.B+,@q+Q.'@)@!@J+~@M (+v +.> 2 N T.- l >@U.>@7.$.%.                                                      ",
"                  (.k.m {@]@^@*@G+/@L (@y 1 3 | + f.z z (+$ j.i.u.k l =                                                         ",
"              % B.c+a+n _@:@<@[@:.}@a.).5.4.Y.@ l @ (+; | ~ = 6.6.                                                              ",
"              % . _.H 9 |@1@2@3@;.4@5@4.5.y f H+i j.$ +.$ $ | w w { $                                                           ",
"              % . _.6@0 0.'.P+f f.> ^ x y ^ 4 @.#.=+U l %.$ 4 3 3 4 $                                                           ",
"              % . c+: 7@8@9@x X.p.0@F.1 O w + i h.h.V.F $.  ' 4 4 ' .                                                           ",
"                  ) 6+]@e.b.1 1 1 y x e ] ' 5 i.D U.J.u.j.= $ + $ .                                                             ",
"                    % ~ v > z e 4.5.5.e > @ $.F u.=+u.F $.=                                                                     ",
"                    % &+$ v (+z 1 5.4./ > @ %.$.v.L.L.$.%.                                                                      ",
"                          ~ +.w O e e z (+@   = = = =                                                                           ",
"                        =   $ | (+> > (+| $                                                                                     ",
"                            ~ $ @ # # + $ ~                                                                                     ",
"                                                                                                                                "};
