/* XPM */
static char * wall2_xpm[] = {
"64 64 365 2",
"  	c #D68D46",
". 	c #CD8745",
"+ 	c #BC7A45",
"@ 	c #B27344",
"# 	c #D08846",
"$ 	c #C38045",
"% 	c #C17E45",
"& 	c #C98345",
"* 	c #CF8846",
"= 	c #D48B46",
"- 	c #D48C46",
"; 	c #C68245",
"> 	c #B97844",
", 	c #B47544",
"' 	c #C48045",
") 	c #D08946",
"! 	c #C98445",
"~ 	c #BA7844",
"{ 	c #C78245",
"] 	c #D78D46",
"^ 	c #BA7944",
"/ 	c #B17244",
"( 	c #B17344",
"_ 	c #BC7B45",
": 	c #CE8746",
"< 	c #CC8645",
"[ 	c #C88345",
"} 	c #CB8545",
"| 	c #D28A46",
"1 	c #B07144",
"2 	c #AC6F44",
"3 	c #C58145",
"4 	c #B67644",
"5 	c #AB6F43",
"6 	c #B37544",
"7 	c #CA8545",
"8 	c #AB6E44",
"9 	c #9F6643",
"0 	c #A26843",
"a 	c #B37444",
"b 	c #BD7B45",
"c 	c #D78E46",
"d 	c #B77744",
"e 	c #A56A43",
"f 	c #9D6443",
"g 	c #A86D43",
"h 	c #A76B43",
"i 	c #925D42",
"j 	c #905B42",
"k 	c #A16743",
"l 	c #A96D43",
"m 	c #AA6D43",
"n 	c #CE8745",
"o 	c #B57544",
"p 	c #9C6443",
"q 	c #A46943",
"r 	c #AE7044",
"s 	c #B87744",
"t 	c #A46A43",
"u 	c #875541",
"v 	c #7F4F41",
"w 	c #8F5B42",
"x 	c #976042",
"y 	c #986143",
"z 	c #C17F44",
"A 	c #C37F45",
"B 	c #D38B46",
"C 	c #CB8645",
"D 	c #C27F45",
"E 	c #986142",
"F 	c #935E42",
"G 	c #A86C43",
"H 	c #AF7144",
"I 	c #845341",
"J 	c #895742",
"K 	c #965F42",
"L 	c #BA7945",
"M 	c #B77644",
"N 	c #BD7C44",
"O 	c #915D42",
"P 	c #966042",
"Q 	c #A06743",
"R 	c #895741",
"S 	c #7C4E41",
"T 	c #885641",
"U 	c #9D6543",
"V 	c #935D42",
"W 	c #955F42",
"X 	c #AA6E43",
"Y 	c #9A6342",
"Z 	c #6A4140",
"` 	c #714641",
" .	c #7F5041",
"..	c #976141",
"+.	c #B07340",
"@.	c #AF723F",
"#.	c #925E3E",
"$.	c #7C4E3E",
"%.	c #774A40",
"&.	c #754941",
"*.	c #805140",
"=.	c #945E3F",
"-.	c #A56B40",
";.	c #B57543",
">.	c #AE7144",
",.	c #A76C42",
"'.	c #A06740",
").	c #925D3F",
"!.	c #7A4C40",
"~.	c #A76B42",
"{.	c #9D653F",
"].	c #684040",
"^.	c #6B4240",
"/.	c #714640",
"(.	c #764A3D",
"_.	c #7A4D37",
":.	c #724933",
"<.	c #613C32",
"[.	c #643E37",
"}.	c #7A4C3E",
"|.	c #855442",
"1.	c #865442",
"2.	c #7D4F3E",
"3.	c #714737",
"4.	c #8C5A38",
"5.	c #BA7941",
"6.	c #D58C46",
"7.	c #8E5A3F",
"8.	c #764A37",
"9.	c #684137",
"0.	c #68403D",
"a.	c #694233",
"b.	c #5F3A3B",
"c.	c #623C3D",
"d.	c #673F3F",
"e.	c #513136",
"f.	c #452831",
"g.	c #442831",
"h.	c #583535",
"i.	c #72473A",
"j.	c #80513E",
"k.	c #7A4D3E",
"l.	c #663F37",
"m.	c #885838",
"n.	c #BF7E41",
"o.	c #764A3C",
"p.	c #513132",
"q.	c #422730",
"r.	c #553337",
"s.	c #633C3D",
"t.	c #683F3F",
"u.	c #774A3D",
"v.	c #331D2B",
"w.	c #462A31",
"x.	c #523136",
"y.	c #663F3F",
"z.	c #613B3D",
"A.	c #5D383B",
"B.	c #5E393B",
"C.	c #5C3839",
"D.	c #593735",
"E.	c #603B36",
"F.	c #6E443D",
"G.	c #76493F",
"H.	c #7B4D3E",
"I.	c #9B643F",
"J.	c #C48144",
"K.	c #9A6343",
"L.	c #835341",
"M.	c #67403C",
"N.	c #482B31",
"O.	c #361F2C",
"P.	c #402630",
"Q.	c #68403C",
"R.	c #2F1A2B",
"S.	c #321C2B",
"T.	c #4B2D31",
"U.	c #744841",
"V.	c #784B41",
"W.	c #7E4F41",
"X.	c #784B3D",
"Y.	c #643E36",
"Z.	c #583635",
"`.	c #6A413D",
" +	c #7D4F40",
".+	c #C38044",
"++	c #AC6F41",
"@+	c #9A6240",
"#+	c #925D41",
"$+	c #895642",
"%+	c #7C4D41",
"&+	c #4A2C31",
"*+	c #301B2A",
"=+	c #311C2B",
"-+	c #6D4340",
";+	c #724741",
">+	c #533232",
",+	c #774A3C",
"'+	c #875542",
")+	c #9B6342",
"!+	c #89573E",
"~+	c #543336",
"{+	c #6B423D",
"]+	c #9B6343",
"^+	c #AB6F40",
"/+	c #855538",
"(+	c #744937",
"_+	c #84533E",
":+	c #8C5842",
"<+	c #885642",
"[+	c #311B2A",
"}+	c #452931",
"|+	c #724640",
"1+	c #805041",
"2+	c #432731",
"3+	c #5D3936",
"4+	c #7F503E",
"5+	c #966043",
"6+	c #A06643",
"7+	c #87553D",
"8+	c #5B3832",
"9+	c #40262F",
"0+	c #543337",
"a+	c #6D433D",
"b+	c #BB7A44",
"c+	c #CD8646",
"d+	c #CE8846",
"e+	c #8B583A",
"f+	c #5D3A31",
"g+	c #8D5942",
"h+	c #83533E",
"i+	c #694237",
"j+	c #4F3030",
"k+	c #3C232D",
"l+	c #774A41",
"m+	c #8E5A42",
"n+	c #8C5942",
"o+	c #82523E",
"p+	c #563532",
"q+	c #845340",
"r+	c #96603E",
"s+	c #643E33",
"t+	c #3F252F",
"u+	c #5E3A36",
"v+	c #5C3931",
"w+	c #41272D",
"x+	c #492B31",
"y+	c #8B5841",
"z+	c #704639",
"A+	c #5F393B",
"B+	c #8A5841",
"C+	c #7E4F3D",
"D+	c #B37344",
"E+	c #9F6640",
"F+	c #6F4637",
"G+	c #593635",
"H+	c #73483A",
"I+	c #7E503D",
"J+	c #87563D",
"K+	c #9E653F",
"L+	c #8B593A",
"M+	c #5E3A31",
"N+	c #301B2B",
"O+	c #412630",
"P+	c #563438",
"Q+	c #7E4F40",
"R+	c #865542",
"S+	c #784C3D",
"T+	c #915C42",
"U+	c #A76C43",
"V+	c #311C2A",
"W+	c #2F1A2A",
"X+	c #905C42",
"Y+	c #C17F45",
"Z+	c #A26842",
"`+	c #5D3939",
" @	c #553432",
".@	c #5A3832",
"+@	c #633E33",
"@@	c #684133",
"#@	c #44282D",
"$@	c #38202D",
"%@	c #553336",
"&@	c #764941",
"*@	c #89573F",
"=@	c #9B6341",
"-@	c #744840",
";@	c #AA6D44",
">@	c #6F4440",
",@	c #371F2D",
"'@	c #38212D",
")@	c #321D2B",
"!@	c #603A3B",
"~@	c #B87844",
"{@	c #361F2D",
"]@	c #533236",
"^@	c #976143",
"/@	c #311B2B",
"(@	c #432730",
"_@	c #462931",
":@	c #6C423D",
"<@	c #402530",
"[@	c #6A423D",
"}@	c #7D4E40",
"|@	c #A16843",
"1@	c #AA6E44",
"2@	c #88573E",
"3@	c #603B32",
"4@	c #4E2F32",
"5@	c #482B32",
"6@	c #503132",
"7@	c #69413D",
"8@	c #BF7D45",
"9@	c #CA8445",
"0@	c #5A3732",
"a@	c #6B4337",
"b@	c #71463D",
"c@	c #8B5842",
"d@	c #BE7C44",
"e@	c #B97943",
"f@	c #A86C40",
"g@	c #905C3E",
"h@	c #73483C",
"i@	c #88563D",
"j@	c #7B4D40",
"k@	c #68403F",
"l@	c #623B3D",
"m@	c #37202C",
"n@	c #97613F",
"o@	c #8D5941",
"p@	c #AD7044",
"q@	c #BF7C45",
"r@	c #9D6542",
"s@	c #9F6743",
"t@	c #AC6F43",
"u@	c #B07244",
"v@	c #945F42",
"w@	c #704540",
"x@	c #75493D",
"y@	c #965F41",
"z@	c #CC8646",
"A@	c #976142",
"B@	c #371F2C",
"C@	c #593636",
"D@	c #945E42",
"E@	c #A36943",
"F@	c #815141",
"G@	c #563437",
"H@	c #623C36",
"I@	c #88563F",
"J@	c #472A31",
"K@	c #472A32",
"L@	c #784B3E",
"M@	c #BE7C45",
"N@	c #6F453F",
"O@	c #8D5A3F",
"P@	c #623C3C",
"Q@	c #694040",
"R@	c #7B4D41",
"S@	c #C07D45",
"T@	c #6B4140",
"U@	c #986242",
"V@	c #C07D44",
"W@	c #543236",
"X@	c #BC7B44",
"          . + + .                             . + @ @ + .                 . + + .                             . + @ @ + .       ",
"          # $ % & * =                     - * ; > , > ' ) - ) # =         # $ % & * =                     - * ; > , > ' ) - ) . ",
"          - # ! % $ #                     ) $ > , ~ { ) - * $ $ *         - # ! % $ #                     ) $ > , ~ { ) - # $ + ",
"              * $ $ *             - ) ) - ) ' + + $ # - ) ; ~ + .             * $ $ *             - ) ) - ) ' + + $ # - ) { ~ @ ",
"              = # * =             * $ $ * = # . . ) - ) ' > , + .             = # * =             * $ $ * = # . . ) - ) ' ~ , @ ",
"                        ] ]   - * ; > ^ { ) -     ]   . + / ( _ :                       ] ]   - * ; > ^ { ) -     ]   . + @ ( @ ",
"                              ) $ > , , > $ )   ] ]   . + / ( + .                             ) $ > , , > $ )   ] ]   . + @ ( @ ",
". * =             - ) < [ } | ) ' ^ , 1 2 , 3 : : ) = ) $ > , > ; * -             - ) < [ } | ) ' ^ , 1 2 , 3 : : ) = ) $ ^ , @ ",
"+ $ #             ) $ 4 5 6 7 - ) { > 8 9 0 a + b $ # - ) { ~ , > $ )             ) $ 4 5 6 7 - ) { > 8 9 0 a + b $ # - ) { ~ @ ",
"b ' )         c c < d e f g % ) - : + h i j k l m 4 <   ] n _ o ^ ' )         c c < d e f g % ) - : + h i j k l m 4 <   ] : _ @ ",
". * =         ]   [ 5 p q r s ' ) : b t u v w x y 5 [   c . _ > ; * -         ]   [ 5 p q r s ' ) : b t u v w x y 5 [   c : _ @ ",
"z A 3 } B B C ; D , E F G @ @ + . ) ' H F I J w K 5 [ - ) { L M N A 3 } B B C ; D , E F G @ @ + . ) ' H F I J w K 5 [ - ) { L a ",
"O P Q , } } , Q P R S T e @ @ + . - ) ' H U V W 0 d < ) ' ^ , X Y P Q , } } , Q P R S T e @ @ + . - ) ' H U V W 0 d < ) ' ^ , @ ",
"Z `  ...+.@.#.$.%.&.&.*.=.-.;.$ )     ) $ 4 5 G >.b : < d ,.'.).!.` v ..+.@.#.$.%.&.&.*.=.-.;.$ )     ) $ 4 5 G >.b : < d ~.'.{.",
"].^./.(._.:.<.[.}.|.1.2.3.4.5.# 6.    - ) < [ % s b . [ 5 7.8.9.0.^./.(._.:.<.[.}.|.1.2.3.4.5.# 6.    - ) < [ % s b . [ 5 7.8.a.",
"b.c.d.c.e.f.g.h.i.j.I k.l.m.n.  c             : b > % > Y o.p.q.r.s.t.c.e.f.g.h.i.j.I k.l.m.n.  c             : b > % > Y u.p.v.",
"w.x.c.y.z.A.B.C.D.E.F.G.H.I.J.  c         c ] : _ H G K.L.M.N.O.P.x.c.y.z.A.B.C.D.E.F.G.H.I.J.  c         c ] : _ H G K.L.Q.N.R.",
"S.T.Q.U.&.V.W.X.Y.Z.C.`. +K.> } B ] ]     6.) .+++@+#+$+%+Q.&+*+=+w.b.-+;+V.v X.Y.Z.C.`. +K.> } B ] ]     6.) .+++@+#+$+%+Q.&+=+",
"S.>+,+1.'+w p )+!+i.h.~+{+L.]+6 }         ) $ ^+/+(+_+:+<+u.>+S.[+}+b.|+1+w f )+!+i.h.~+{+L.]+6 }         ) $ ^+/+(+_+:+<+u.>+v.",
"2+3+4+j 5+6+2 2 6+7+8+9+0+a+I Q b+! c+d+: .+++e+f+>+o.$+g+h+i+j+k+g.B.l+m+6+2 2 6+7+8+9+0+a+I Q b+! c+d+: .+++e+f+>+o.<+n+o+9.p+",
"b.F.q+P q 2 / / 2 r+s+O.t+u+4+F 9 5 d b _ ++/+v+w+x+Q.S $+y+h+z+j+}+A+v f 2 / / 2 r+s+O.t+u+4+F 9 5 d b _ ++/+v+w+x+Q.S $+B+h+C+",
"O P Q g H @ @ D+@ E+F+g.g.G+H+C+I+J+r+K+{.L+M+S.N+O+P+{+Q+R+R+$.l.Y.S+T+U+@ @ D+@ E+F+g.g.G+H+C+I+J+r+K+{.L+M+V+W+}+b.U.1.X+K y ",
"Y+$ 3 % s @ @ D+@ Z+$.b.B.`+G+p+ @.@+@@@@@f+#@N+=+$@O+%@{+&.&@%.$.*@=@U+H @ @ D+@ Z+$.b.B.`+G+p+ @.@+@@@@@f+#@W+=+}+b.-@1.P q ;@",
"      ) $ ~ , @ @ U+X+S >@A.2+N+*+S.=+N+N+,@O+q.'@S.)@q.P+b.!@{+ +X+0 H ~@^ o @ @ U+X+S >@A.2+N+*+S.=+N+N+{@O+}+}+]@`.W.j 0 , + ",
"c c ] - ) { ~ @ @ H U+^@S b.g.=+*+/@N+W+R.O+P+P+(@v.S.$@O+}+_@%@:@ .T+l D { ^ @ @ H U+^@S b.g.=+*+/@N+W+R.<@P+b.!@[@}@j |@, 3 : ",
"          ) ' ^ o @ @ 1@Y 2@(+3@4@5@6@.@+@9.7@z.e.q.$@v.v.)@v.O+P+`.Q+U 8@9@D ^ o @ @ 1@Y 2@(+3@4@5@6@0@+@a@b@l+W.c@U 5 d $ )   ",
"          - ) { ~ @ @ d d@e@f@g@h@Q.o.i@r+).j@k@l@P+q.v.S.S.S.m@O+]@{+n+r % 9@{ ^ @ @ d d@e@f@g@h@Q.o.J+r+n@o@m+p p@q@[ < ) -   ",
"          - ) { > , > ' ) ) ' @ r@P s@t@d u@v@S w@b._@v.S.v.v.)@v.P.P+x@y@u@' { ^ , > ' ) ) ' @ r@P s@t@d 4 t@5 4 $ )           ",
"          ) ' ^ o ~ { ) 6.6.) } 3 $ 3 ! z@' u@A@%+!@}+v.S.v.v.v.)@B@O+C@x@D@u@^ o ~ { ) 6.6.) } 3 $ 3 ! z@z@! [ < ) - ]         ",
"      - * ; > , > $ )                     : + E@F@b.g.v.=+S.S.S.S.=+S.t+G@X.)+H ~@$ )                             - ) # =       ",
"      ) $ > , > { ) -           ] c ] c   : b q F@b.f.v.S.v.v.v.v.v.)@O.P.H@I@G D ) 6.          ] c ] ]     ] c   # $ $ *       ",
"      ) $ > , + .                         ) ' r c@M.J@{@P.J@K@K@J@w.w.}+_@C@L@9 3   c                         - ) ; > + .   ]   ",
"      - * ; > _ .                         - # M@p ,+p.q.r.b.!@b.b.b.b.b.b.s.N@P $   c                         ) $ > , + .       ",
"          # $ % & * =                     - * % G O@8.9.0.d.c.P@d.Q@Q@^./.R@B+E@S@* -                     - * ; > , > ' ) - ) . ",
"          - ) ! % $ #                     ) ' ~@H ,.'.).!.c.e.x.c.Z T@` 1+U@, V@M@$ #                     ) $ > , > { ) - # $ + ",
"              * $ $ *             - ) ) - ) ' + + b + p@n+`.]@W@7@l+W.c@U , } * ' $ *             - ) ) - ) ' + + $ # - ) { ~ @ ",
"              = # * =             * $ $ * = # . . : : 8@U }@7@[@}@m+p p@M@} B - ) * =             * $ $ * = # . . ) - ) ' ~ , @ ",
"                        ] ]   - * ; > ^ { ) -     c   [ 5 i u n+U 5 d $ )               ] ]   - * ; > ^ { ) -     ]   . + @ ( @ ",
"                              ) $ > , , > $ )   ] c   < d G t p@M@[ < ) -                     ) $ > , , > $ )   ] ]   . + @ ( @ ",
". * =             - ) < [ } | ) ' ^ , 1 2 , 3 : : ) = ) $ > , > ; * -             - ) < [ } | ) ' ^ , 1 2 , 3 : : ) = ) $ ^ , @ ",
"+ $ #             ) $ 4 5 6 7 - ) { > 8 9 0 a + b $ # - ) { ^ o ^ ' )             ) $ 4 5 6 7 - ) { > 8 9 0 a + b $ # - ) { ~ @ ",
"b ' )         c c < d e f g % ) - : + h i j k l m 4 <   ] n _ o ^ ' )         c c < d e f g % ) - : + h i j k l m 4 <   ] : _ @ ",
". * =         ]   [ 5 p q r s ' ) : b t u v w x y 5 [   c . _ > ; * -         ]   [ 5 p q r s ' ) : b t u v w x y 5 [   c : _ @ ",
"z A 3 } B B C ; D , E F G @ @ + . ) ' H F I J w K 5 [ - ) { L M N A 3 } B B C ; D , E F G @ @ + . ) ' H F I J w K 5 [ - ) { L a ",
"O P Q , } } , Q P R S T e @ @ + . - ) ' H U V W 0 d < ) ' ^ , X Y P Q , } } , Q P R S T e @ @ + . - ) ' H U V W 0 d < ) ' ^ , @ ",
"Z `  ...+.@.#.$.%.&.&.*.=.-.;.$ )     ) $ 4 5 G >.b : < d ,.'.).!.` v ..+.@.#.$.%.&.&.*.=.-.;.$ )     ) $ 4 5 G >.b : < d ~.'.{.",
"].^./.(._.:.<.[.}.|.1.2.3.4.5.# 6.    - ) < [ % s b . [ 5 7.8.9.0.^./.(._.:.<.[.}.|.1.2.3.4.5.# 6.    - ) < [ % s b . [ 5 7.8.a.",
"b.c.d.c.e.f.g.h.i.j.I k.l.m.n.  c             : b > % > Y o.p.q.r.c.d.c.e.f.g.h.i.j.I k.l.m.n.  c             : b > % > Y u.p.v.",
"w.x.c.y.z.A.B.C.D.E.F.G.H.I.J.  c         c ] : _ H G K.L.M.N.O.P.x.c.y.z.A.B.C.D.E.F.G.H.I.J.  c         c ] : _ H G K.L.Q.N.R.",
"S.T.Q.U.&.V.W.X.Y.Z.C.`. +K.> } B ] ]     6.) .+++@+#+$+%+Q.&+*+*+T.Q.U.&.V.W.X.Y.Z.C.`. +K.> } B ] ]     6.) .+++@+#+$+%+Q.&+=+",
"S.>+,+1.'+w p )+!+i.h.~+{+L.]+6 }         ) $ ^+/+(+_+:+<+u.>+=+[+>+,+1.'+w p )+!+i.h.~+{+L.]+6 }         ) $ ^+/+(+_+:+<+u.>+v.",
"2+3+4+j 5+6+2 2 6+7+8+9+0+a+I Q b+! c+d+: .+++e+f+>+o.<+n+o+9.p.N.3+4+j 5+6+2 2 6+7+8+9+0+a+I Q b+! c+d+: .+++e+f+>+o.<+n+o+9.p+",
"b.F.q+P q 2 / / 2 r+s+O.t+u+4+F 9 5 d b _ ++/+v+w+x+Q.S $+y+h+o.Q.F.q+P q 2 / / 2 r+s+O.t+u+4+F 9 5 d b _ ++/+v+w+x+Q.S $+B+h+C+",
"O P Q g H @ @ D+@ E+F+g.g.G+H+C+I+J+r+K+{.L+M+V+W+}+b.U.1.X+K P F P Q g H @ @ D+@ E+F+g.g.G+H+C+I+J+r+K+{.L+M+V+W+}+b.U.1.X+K y ",
"Y+$ 3 % s @ @ D+@ Z+$.b.B.`+G+p+ @.@+@@@@@f+#@W+=+}+b.-@1.K q u@X@$ 3 % s @ @ D+@ Z+$.b.B.`+G+p+ @.@+@@@@@f+#@W+=+}+b.-@1.P q ;@",
"      ) $ ~ , @ @ U+X+S >@A.2+N+*+S.=+N+N+{@O+}+}+]@`.W.j 0 , $ )     ) $ ~ , @ @ U+X+S >@A.2+N+*+S.=+N+N+{@O+}+}+]@`.W.j 0 , + ",
"c c ] - ) { ~ @ @ H U+^@S b.g.=+*+/@N+W+R.<@P+b.!@[@}@j |@, 3 ) 6.c c - ) { ~ @ @ H U+^@S b.g.=+*+/@N+W+R.<@P+b.!@[@}@j |@, 3 : ",
"          ) ' ^ o @ @ 1@Y 2@(+3@4@5@6@0@+@a@b@l+W.c@U 5 d $ )             ) ' ^ o @ @ 1@Y 2@(+3@4@5@6@0@+@a@b@l+W.c@U 5 d $ )   ",
"          - ) { ~ @ @ d d@e@f@g@h@Q.o.J+r+n@o@m+p p@q@[ < ) -             - ) { ~ @ @ d d@e@f@g@h@Q.o.J+r+n@o@m+p p@q@[ < ) -   ",
"          - ) { > , > ' ) ) ' @ r@P s@t@d 4 t@5 4 $ )                     - ) { > , > ' ) ) ' @ r@P s@t@d 4 t@5 4 $ )           ",
"          ) ' ^ o ~ { ) 6.6.) } 3 $ 3 ! z@z@! [ < ) - ]                   ) ' ^ o ~ { ) 6.6.) } 3 $ 3 ! z@z@! [ < ) - ]         ",
"      - # { ~ , > $ )                             = # # =             - # { ~ , > $ )                             = # # =       ",
"      ) $ > , > { ) -           ] c ] ]     ] c   # $ $ *             ) $ > , > { ) -           ] c ] ]     ] c   # $ $ *       ",
"      . + @ @ + .                                 . + + .             . + @ @ + .                                 . + + .       "};
